# xmcd
#
# Track frame offsets:
#	150
#	18377
#	43732
#
# Disc length: 4440 seconds
#
# Revision: 0
# Processed by: cddbd v1.4PL0 Copyright (c) Steve Scherf et al.
# Submitted via: dBpowerAMP V4.0
#
DISCID=1d115603
DTITLE=Andre Hazes - You've got that lovin' feelin'
DYEAR=2002
DGENRE=Blues
TTITLE0=You've got that lovin' feelin'
TTITLE1=Laat me vrij
TTITLE2=DATA
EXTD=www.hazesfansite.com
EXTT0=
EXTT1=
EXTT2=
PLAYORDER=
